<svg xmlns="http://www.w3.org/2000/svg" viewBox="0 1.87 72.45 78.35"><path xmlns="http://www.w3.org/2000/svg" fill="#1f1984" d="m70.34 29.02-65.72-26.89c-2.37-.97-4.91.98-4.59 3.52l9.06 71.62c.33 2.59 3.35 3.82 5.4 2.21l56.66-44.73c2.01-1.59 1.57-4.76-.81-5.73zm-24.11-.2-6.72 9.85c-.16.23-.19.53-.09.79l4.3 11.12c.26.66-.36 1.33-1.04 1.13l-11.44-3.35c-.27-.08-.56-.02-.78.16l-9.24 7.53c-.55.45-1.38.07-1.4-.64l-.35-11.91c0-.28-.15-.54-.39-.69l-10.01-6.46c-.6-.38-.49-1.29.18-1.53l11.22-4.02c.27-.09.47-.31.54-.59l3.05-11.52c.18-.69 1.07-.87 1.5-.3l7.29 9.43c.17.22.44.35.72.33l11.9-.66c.71-.04 1.15.75.75 1.34z"/></svg>