<svg viewBox="0 0 493.38 80.2" xmlns="http://www.w3.org/2000/svg"><g fill="#1f1984"><path d="m82.61 62.96-.05-45.66h11.14l.05 4.06c1.55-1.64 3.41-2.94 5.57-3.9s4.49-1.44 6.99-1.44c1.67 0 3.35.24 5.02.73l-4.38 11.23c-1.16-.46-2.31-.69-3.47-.69-1.8 0-3.43.43-4.91 1.3s-2.65 2.04-3.52 3.52-1.3 3.11-1.3 4.91v25.93h-11.14z"/><path d="m129.59 64.15c-4.2 0-8.03-1.08-11.48-3.24s-6.21-5.07-8.26-8.72-3.08-7.69-3.08-12.1c0-3.32.59-6.43 1.78-9.34s2.82-5.46 4.91-7.67c2.08-2.21 4.51-3.93 7.28-5.18s5.72-1.87 8.86-1.87c3.56 0 6.83.75 9.79 2.26 2.97 1.51 5.49 3.57 7.56 6.19s3.58 5.6 4.52 8.95 1.16 6.85.64 10.5h-33.38c.43 1.71 1.13 3.23 2.1 4.59s2.21 2.44 3.7 3.24c1.49.81 3.18 1.23 5.07 1.26 1.95.03 3.72-.43 5.32-1.39s2.93-2.26 3.99-3.9l11.37 2.65c-1.86 4.05-4.63 7.36-8.31 9.93s-7.81 3.86-12.37 3.86zm-11.23-28.58h22.46c-.34-1.83-1.04-3.48-2.12-4.95-1.08-1.48-2.41-2.66-3.99-3.54s-3.29-1.32-5.11-1.32-3.52.43-5.07 1.3-2.87 2.04-3.95 3.52-1.82 3.14-2.21 5z"/><path d="m185.7 49.22 10.04 5.43c-2.1 2.86-4.73 5.16-7.9 6.89s-6.62 2.6-10.36 2.6c-4.2 0-8.03-1.08-11.48-3.24s-6.21-5.06-8.26-8.7-3.08-7.66-3.08-12.08c0-3.35.59-6.48 1.78-9.38 1.19-2.91 2.82-5.46 4.91-7.67 2.08-2.21 4.51-3.93 7.28-5.18s5.72-1.87 8.86-1.87c3.74 0 7.2.87 10.36 2.6 3.17 1.74 5.8 4.06 7.9 6.99l-10.04 5.39c-1.07-1.22-2.32-2.16-3.77-2.83s-2.93-1-4.45-1c-2.19 0-4.17.6-5.94 1.8s-3.17 2.78-4.2 4.75c-1.04 1.96-1.55 4.1-1.55 6.42s.52 4.41 1.55 6.37 2.43 3.54 4.2 4.73c1.76 1.19 3.74 1.78 5.94 1.78 1.58 0 3.09-.34 4.52-1.03s2.66-1.61 3.7-2.76z"/><path d="m217.56 62.96-.05-45.66h11.14l.05 4.06c1.55-1.64 3.41-2.94 5.57-3.9s4.49-1.44 6.99-1.44c1.67 0 3.35.24 5.02.73l-4.38 11.23c-1.16-.46-2.31-.69-3.47-.69-1.8 0-3.43.43-4.91 1.3s-2.65 2.04-3.52 3.52-1.3 3.11-1.3 4.91v25.93h-11.14z"/><path d="m264.54 64.15c-4.2 0-8.03-1.08-11.48-3.24s-6.21-5.07-8.26-8.72-3.08-7.69-3.08-12.1c0-3.32.59-6.43 1.78-9.34s2.82-5.46 4.91-7.67c2.08-2.21 4.51-3.93 7.28-5.18s5.72-1.87 8.86-1.87c3.56 0 6.83.75 9.79 2.26 2.97 1.51 5.49 3.57 7.56 6.19s3.58 5.6 4.52 8.95 1.16 6.85.64 10.5h-33.37c.43 1.71 1.13 3.23 2.1 4.59s2.21 2.44 3.7 3.24c1.49.81 3.18 1.23 5.07 1.26 1.95.03 3.72-.43 5.32-1.39s2.93-2.26 4-3.9l11.37 2.65c-1.86 4.05-4.63 7.36-8.31 9.93s-7.81 3.86-12.37 3.86zm-11.23-28.58h22.46c-.34-1.83-1.04-3.48-2.12-4.95-1.08-1.48-2.41-2.66-4-3.54-1.58-.88-3.29-1.32-5.11-1.32s-3.52.43-5.07 1.3-2.87 2.04-3.95 3.52-1.82 3.14-2.21 5z"/><path d="m314.13 62.96h-14.38l-16.62-45.7h11.87l11.96 32.87 11.92-32.87h11.87z"/><path d="m338.98 11.41c-1.64 0-3.03-.54-4.15-1.62-1.13-1.08-1.69-2.44-1.69-4.09s.56-2.97 1.69-4.06c1.13-1.1 2.49-1.64 4.11-1.64s2.97.55 4.09 1.64c1.11 1.1 1.67 2.45 1.67 4.06s-.55 3.01-1.64 4.09c-1.1 1.08-2.45 1.62-4.06 1.62zm-5.66 5.89h11.14v45.66h-11.14z"/><path d="m369.5 64.15c-4.2 0-8.03-1.08-11.48-3.24s-6.21-5.07-8.26-8.72-3.08-7.69-3.08-12.1c0-3.32.59-6.43 1.78-9.34s2.82-5.46 4.91-7.67c2.08-2.21 4.51-3.93 7.28-5.18s5.72-1.87 8.86-1.87c3.56 0 6.83.75 9.79 2.26 2.97 1.51 5.49 3.57 7.56 6.19s3.58 5.6 4.52 8.95 1.16 6.85.64 10.5h-33.37c.43 1.71 1.13 3.23 2.1 4.59s2.21 2.44 3.7 3.24c1.49.81 3.18 1.23 5.07 1.26 1.95.03 3.72-.43 5.32-1.39s2.93-2.26 4-3.9l11.37 2.65c-1.86 4.05-4.63 7.36-8.31 9.93s-7.81 3.86-12.37 3.86zm-11.23-28.58h22.46c-.34-1.83-1.04-3.48-2.12-4.95-1.08-1.48-2.41-2.66-4-3.54-1.58-.88-3.29-1.32-5.11-1.32s-3.52.43-5.07 1.3-2.87 2.04-3.95 3.52-1.82 3.14-2.21 5z"/><path d="m414.38 62.96h-11.05l-15.25-45.66h10.91l9.91 29.54 9.86-29.54h11l9.86 29.54 9.91-29.54h10.91l-15.25 45.66h-11.05l-9.91-29.68-9.86 29.68z"/><path d="m474.93 63.78c-2.37-.15-4.66-.63-6.87-1.44s-4.16-1.91-5.87-3.31-3.01-3.07-3.93-5.02l9.41-4.02c.37.61.96 1.26 1.78 1.94s1.8 1.26 2.94 1.71 2.4.68 3.77.68c1.16 0 2.26-.16 3.31-.48s1.9-.81 2.56-1.48c.65-.67.98-1.54.98-2.6 0-1.13-.39-2-1.16-2.63s-1.75-1.1-2.92-1.42-2.31-.62-3.4-.89c-2.89-.58-5.58-1.48-8.06-2.69-2.48-1.22-4.47-2.79-5.98-4.73s-2.26-4.27-2.26-7.01c0-3.01.8-5.62 2.4-7.81s3.68-3.88 6.25-5.07 5.35-1.78 8.33-1.78c3.62 0 6.95.75 9.98 2.26s5.42 3.63 7.19 6.37l-8.81 5.2c-.43-.73-1.02-1.41-1.78-2.03s-1.63-1.14-2.6-1.55-1.99-.65-3.06-.71c-1.37-.06-2.62.06-3.74.37-1.13.3-2.03.82-2.72 1.55-.68.73-1.03 1.71-1.03 2.92s.46 2.02 1.37 2.58 2.02 1 3.31 1.3 2.53.64 3.72 1c2.68.88 5.2 1.96 7.56 3.24s4.25 2.85 5.68 4.7c1.43 1.86 2.12 4.08 2.05 6.67 0 2.95-.88 5.53-2.65 7.74s-4.04 3.89-6.83 5.05c-2.78 1.16-5.76 1.61-8.93 1.37z"/></g><circle cx="202.84" cy="39.66" fill="#f1054d" r="6.98"/><path d="m70.34 29.02-65.72-26.89c-2.37-.97-4.91.98-4.59 3.52l9.06 71.62c.33 2.59 3.35 3.82 5.4 2.21l56.66-44.73c2.01-1.59 1.57-4.76-.81-5.73zm-24.11-.2-6.72 9.85c-.16.23-.19.53-.09.79l4.3 11.12c.26.66-.36 1.33-1.04 1.13l-11.44-3.35c-.27-.08-.56-.02-.78.16l-9.24 7.53c-.55.45-1.38.07-1.4-.64l-.35-11.91c0-.28-.15-.54-.39-.69l-10.01-6.46c-.6-.38-.49-1.29.18-1.53l11.22-4.02c.27-.09.47-.31.54-.59l3.05-11.52c.18-.69 1.07-.87 1.5-.3l7.29 9.43c.17.22.44.35.72.33l11.9-.66c.71-.04 1.15.75.75 1.34z" fill="#1f1984"/></svg>